<svg width="42" height="40" viewBox="0 0 42 40" fill="none" xmlns="http://www.w3.org/2000/svg">
<rect x="1" y="1" width="40" height="38" rx="3" stroke="white" stroke-width="2"/>
<path d="M21 18.2353V25.2941M17.7 21.7647H24.3M29.8 30C30.3835 30 30.9431 29.7521 31.3556 29.3108C31.7682 28.8696 32 28.2711 32 27.6471V15.8824C32 15.2583 31.7682 14.6598 31.3556 14.2186C30.9431 13.7773 30.3835 13.5294 29.8 13.5294H21.11C20.7421 13.5333 20.3791 13.4384 20.0543 13.2534C19.7296 13.0684 19.4534 12.7993 19.251 12.4706L18.36 11.0588C18.1597 10.7335 17.887 10.4664 17.5663 10.2816C17.2457 10.0968 16.8872 10.0001 16.523 10H12.2C11.6165 10 11.0569 10.2479 10.6444 10.6892C10.2318 11.1304 10 11.7289 10 12.3529V27.6471C10 28.2711 10.2318 28.8696 10.6444 29.3108C11.0569 29.7521 11.6165 30 12.2 30H29.8Z" stroke="black" stroke-opacity="0.7" stroke-width="2" stroke-linecap="round" stroke-linejoin="round"/>
</svg>
