<svg width="42" height="40" viewBox="0 0 42 40" fill="none" xmlns="http://www.w3.org/2000/svg">
<rect x="1" y="1" width="40" height="38" rx="3" stroke="white" stroke-width="2"/>
<path d="M10.9506 31H24.2597C24.764 31 25.2476 30.7682 25.6041 30.3556C25.9607 29.9431 26.161 29.3835 26.161 28.8V14.5L21.4078 9H12.8519C12.3477 9 11.8641 9.23178 11.5075 9.64436C11.151 10.0569 10.9506 10.6165 10.9506 11.2V15.6M20.4571 9V13.4C20.4571 13.9835 20.6574 14.5431 21.014 14.9556C21.3706 15.3682 21.8542 15.6 22.3584 15.6H26.161M10 23.3H15.7039M12.8519 20V26.6" stroke="black" stroke-opacity="0.7" stroke-width="2" stroke-linecap="round" stroke-linejoin="round"/>
</svg>
