<svg width="40" height="40" viewBox="0 0 40 40" fill="none" xmlns="http://www.w3.org/2000/svg">
<rect x="1" y="1" width="38" height="38" rx="3" fill="#EEEEEE"/>
<rect x="1" y="1" width="38" height="38" rx="3" stroke="#DDDDDD" stroke-width="2"/>
<path d="M18.1111 29.8421H12.2222C11.6329 29.8421 11.0676 29.5981 10.6509 29.1638C10.2341 28.7295 10 28.1405 10 27.5263V11.3158C10 10.7016 10.2341 10.1126 10.6509 9.67828C11.0676 9.24398 11.6329 9 12.2222 9H27.7778C28.3671 9 28.9324 9.24398 29.3491 9.67828C29.7659 10.1126 30 10.7016 30 11.3158V22.8947L26.5556 19.3053C26.1374 18.8782 25.5745 18.6404 24.989 18.6434C24.4036 18.6464 23.8429 18.8901 23.4289 19.3215L13.3333 29.8421M22.2222 28.1053L25.5556 24.6316M25.5556 24.6316L28.8889 28.1053M25.5556 24.6316V31M18.8889 15.9474C18.8889 17.2263 17.894 18.2632 16.6667 18.2632C15.4394 18.2632 14.4444 17.2263 14.4444 15.9474C14.4444 14.6684 15.4394 13.6316 16.6667 13.6316C17.894 13.6316 18.8889 14.6684 18.8889 15.9474Z" stroke="black" stroke-width="2" stroke-linecap="round" stroke-linejoin="round"/>
</svg>
