<svg width="24" height="18" viewBox="0 0 24 18" fill="none" xmlns="http://www.w3.org/2000/svg">
<path d="M14.6479 1.27496L14.6866 1.13015L14.5418 1.09137L13.6596 0.855106L13.5146 0.816272L13.4759 0.961304L9.26675 16.725L9.22809 16.8699L9.37287 16.9086L10.2551 17.1449L10.4001 17.1837L10.4388 17.0387L14.6479 1.27496ZM16.4612 13.6327L16.3526 13.7353L16.4548 13.8443L17.0802 14.5111L17.1832 14.6209L17.2926 14.5175L23.0167 9.10856L23.132 8.99953L23.0167 8.89051L17.2926 3.48157L17.1832 3.37816L17.0802 3.48798L16.4548 4.15477L16.3526 4.26377L16.4612 4.36641L21.3645 8.99956L16.4612 13.6327ZM6.621 14.5175L6.73043 14.6209L6.83343 14.5111L7.4588 13.8444L7.56103 13.7354L7.45241 13.6328L2.54918 8.99961L7.45335 4.36647L7.56199 4.26383L7.45975 4.15482L6.83439 3.48803L6.7314 3.37822L6.62197 3.48161L0.896986 8.89055L0.781592 8.99957L0.896977 9.1086L6.621 14.5175Z" fill="black" stroke="black" stroke-width="0.3"/>
</svg>
