<svg width="38" height="32" viewBox="0 0 38 32" fill="none" xmlns="http://www.w3.org/2000/svg">
<path d="M33.1491 31.0065C34.0767 31.0065 34.9664 30.6321 35.6224 29.9656C36.2783 29.2991 36.6469 28.3952 36.6469 27.4526V9.68311C36.6469 8.74055 36.2783 7.8366 35.6224 7.17011C34.9664 6.50363 34.0767 6.1292 33.1491 6.1292H19.3328C18.7478 6.13503 18.1707 5.99168 17.6544 5.71229C17.138 5.4329 16.6989 5.02638 16.3772 4.52994L14.9606 2.3976C14.6421 1.90622 14.2085 1.50286 13.6987 1.22374C13.189 0.944608 12.619 0.798437 12.0399 0.79834H5.16674C4.23906 0.79834 3.34939 1.17277 2.69342 1.83925C2.03746 2.50574 1.66895 3.40969 1.66895 4.35225V27.4526C1.66895 28.3952 2.03746 29.2991 2.69342 29.9656C3.34939 30.6321 4.23906 31.0065 5.16674 31.0065H33.1491Z" fill="#DDDDDD"/>
<path d="M19.1579 13.237V23.8987V13.237Z" fill="#DDDDDD"/>
<path d="M13.9112 18.5679L19.1579 13.237L24.4046 18.5679" fill="#DDDDDD"/>
<path d="M19.1579 13.237V23.8987M19.1579 13.237L13.9112 18.5679M19.1579 13.237L24.4046 18.5679M33.1491 31.0065C34.0767 31.0065 34.9664 30.6321 35.6224 29.9656C36.2783 29.2991 36.6469 28.3952 36.6469 27.4526V9.68311C36.6469 8.74055 36.2783 7.8366 35.6224 7.17011C34.9664 6.50363 34.0767 6.1292 33.1491 6.1292H19.3328C18.7478 6.13503 18.1707 5.99168 17.6544 5.71229C17.138 5.4329 16.6989 5.02638 16.3772 4.52994L14.9606 2.3976C14.6421 1.90622 14.2085 1.50286 13.6987 1.22374C13.189 0.944608 12.619 0.798437 12.0399 0.79834H5.16674C4.23906 0.79834 3.34939 1.17277 2.69342 1.83925C2.03746 2.50574 1.66895 3.40969 1.66895 4.35225V27.4526C1.66895 28.3952 2.03746 29.2991 2.69342 29.9656C3.34939 30.6321 4.23906 31.0065 5.16674 31.0065H33.1491Z" stroke="black" stroke-opacity="0.7" stroke-width="1.58991" stroke-linecap="round" stroke-linejoin="round"/>
</svg>
