<svg width="40" height="40" viewBox="0 0 40 40" fill="none" xmlns="http://www.w3.org/2000/svg">
<rect x="1" y="1" width="38" height="38" rx="3" fill="#EEEEEE"/>
<rect x="1" y="1" width="38" height="38" rx="3" stroke="#DDDDDD" stroke-width="2"/>
<path d="M20 25.5H20.0113M16.7375 16.7C17.0075 15.9725 17.5304 15.3609 18.2148 14.9722C18.8992 14.5834 19.7015 14.4422 20.4816 14.5733C21.2617 14.7043 21.9699 15.0993 22.4823 15.6891C22.9947 16.2789 23.2789 17.0261 23.285 17.8C23.285 20 19.91 21.1 19.91 21.1M23.375 9H13.25C12.6533 9 12.081 9.23178 11.659 9.64436C11.2371 10.0569 11 10.6165 11 11.2V28.8C11 29.3835 11.2371 29.9431 11.659 30.3556C12.081 30.7682 12.6533 31 13.25 31H26.75C27.3467 31 27.919 30.7682 28.341 30.3556C28.7629 29.9431 29 29.3835 29 28.8V14.5L23.375 9Z" stroke="black" stroke-width="2" stroke-linecap="round" stroke-linejoin="round"/>
</svg>
