<svg width="40" height="40" viewBox="0 0 40 40" fill="none" xmlns="http://www.w3.org/2000/svg">
<rect x="1" y="1" width="38" height="38" rx="3" fill="#EEEEEE"/>
<rect x="1" y="1" width="38" height="38" rx="3" stroke="#DDDDDD" stroke-width="2"/>
<path d="M11.1111 30L28.8889 30C29.5025 30 30 29.5025 30 28.8889L30 23.3333C30 22.7197 29.5025 22.2222 28.8889 22.2222L11.1111 22.2222C10.4975 22.2222 10 22.7197 10 23.3333L10 28.8889C10 29.5025 10.4975 30 11.1111 30Z" stroke="black" stroke-width="2" stroke-linecap="round" stroke-linejoin="round"/>
<path d="M23.3333 17.7778L28.8889 17.7778C29.5025 17.7778 30 17.2803 30 16.6667L30 11.1111C30 10.4975 29.5025 10 28.8889 10L23.3333 10C22.7197 10 22.2222 10.4975 22.2222 11.1111L22.2222 16.6667C22.2222 17.2803 22.7197 17.7778 23.3333 17.7778Z" stroke="black" stroke-width="2" stroke-linecap="round" stroke-linejoin="round"/>
<path d="M11.1111 17.7778L16.6667 17.7778C17.2803 17.7778 17.7778 17.2803 17.7778 16.6667L17.7778 11.1111C17.7778 10.4975 17.2803 10 16.6667 10L11.1111 10C10.4975 10 10 10.4975 10 11.1111L10 16.6667C10 17.2803 10.4975 17.7778 11.1111 17.7778Z" stroke="black" stroke-width="2" stroke-linecap="round" stroke-linejoin="round"/>
</svg>
