<svg width="20" height="22" viewBox="0 0 20 22" fill="none" xmlns="http://www.w3.org/2000/svg">
<path d="M13 1V5.44444C13 6.03381 13.2107 6.59905 13.5858 7.01579C13.9609 7.43254 14.4696 7.66667 15 7.66667H19M14 1H3C2.46957 1 1.96086 1.23413 1.58579 1.65087C1.21071 2.06762 1 2.63285 1 3.22222V18.7778C1 19.3671 1.21071 19.9324 1.58579 20.3491C1.96086 20.7659 2.46957 21 3 21H17C17.5304 21 18.0391 20.7659 18.4142 20.3491C18.7893 19.9324 19 19.3671 19 18.7778V6.55556L14 1Z" stroke="white" stroke-width="2" stroke-linecap="round" stroke-linejoin="round"/>
</svg>
