<svg width="40" height="40" viewBox="0 0 40 40" fill="none" xmlns="http://www.w3.org/2000/svg">
<rect x="1" y="1" width="38" height="38" rx="3" fill="#EEEEEE"/>
<rect x="1" y="1" width="38" height="38" rx="3" stroke="#DDDDDD" stroke-width="2"/>
<path d="M8 14.7059V27.6471C8 28.2711 8.25286 28.8696 8.70294 29.3108C9.15303 29.7521 9.76348 30 10.4 30H27.2M29.6 25.2941C30.2365 25.2941 30.847 25.0462 31.2971 24.605C31.7471 24.1637 32 23.5652 32 22.9412V15.8824C32 15.2583 31.7471 14.6598 31.2971 14.2186C30.847 13.7773 30.2365 13.5294 29.6 13.5294H24.92C24.5186 13.5333 24.1227 13.4384 23.7684 13.2534C23.4141 13.0684 23.1128 12.7993 22.892 12.4706L21.92 11.0588C21.7015 10.7335 21.404 10.4664 21.0542 10.2816C20.7044 10.0968 20.3133 10.0001 19.916 10H15.2C14.5635 10 13.953 10.2479 13.5029 10.6892C13.0529 11.1304 12.8 11.7289 12.8 12.3529V22.9412C12.8 23.5652 13.0529 24.1637 13.5029 24.605C13.953 25.0462 14.5635 25.2941 15.2 25.2941H29.6Z" stroke="black" stroke-width="2" stroke-linecap="round" stroke-linejoin="round"/>
</svg>
