<svg width="18" height="18" viewBox="0 0 18 18" fill="none" xmlns="http://www.w3.org/2000/svg">
<path d="M1.25337 0.899746L1.25336 0.900171C1.27283 0.900819 1.29637 0.902573 1.32135 0.90834C1.32597 0.908871 1.33127 0.909728 1.33679 0.911107L1.33749 0.911281L1.33749 0.911284L12.8546 3.87679C12.8547 3.8768 12.8548 3.87682 12.8548 3.87683L12.855 3.87687L12.83 3.97371C12.9088 3.99371 12.9726 4.05059 13.0014 4.12684L1.25337 0.899746ZM1.25337 0.899746L1.24416 0.900288C1.23066 0.901081 1.21774 0.902609 1.20494 0.904854L1.25337 0.899746ZM12.0089 17V17.1C12.0091 17.1 12.0092 17.1 12.0094 17.1C12.0095 17.1 12.0097 17.1 12.0098 17.1L12.0089 17ZM11.2902 13.7537L11.2902 13.7537L10.3123 14.7321L4.50939 12.5057L1.90797 2.40336L7.2829 7.77874C6.66507 8.6356 6.74237 9.84421 7.51255 10.6145L7.58327 10.5438L7.51256 10.6145C8.36717 11.4692 9.76012 11.4693 10.6142 10.6145C11.4688 9.75984 11.4687 8.36725 10.6142 7.51253C9.84392 6.74155 8.63448 6.66555 7.77826 7.28355L2.40144 1.90702L12.5062 4.5097L14.7311 10.3127L11.2902 13.7537ZM8.00203 8.01112L8.00512 8.008C8.00565 8.0075 8.00618 8.00698 8.00671 8.00645C8.00868 8.00448 8.01176 8.00144 8.01534 7.99769L8.0409 7.97192C8.31606 7.71422 8.66291 7.57956 9.01336 7.56854L9.01335 7.56858L9.02725 7.56825C9.42099 7.55888 9.81715 7.70575 10.1194 8.00777C10.705 8.59303 10.7045 9.53413 10.1193 10.1194L10.1901 10.1901L10.1193 10.1194C9.5342 10.7047 8.59306 10.7047 8.008 10.1194L7.93728 10.1901L8.008 10.1194C7.42391 9.53518 7.42171 8.59642 8.00203 8.01112ZM10.8944 15.1414L15.1403 10.8959L16.2542 12.0095L12.0082 16.255L10.8944 15.1414Z" fill="black" stroke="black" stroke-width="0.2"/>
</svg>
