<svg width="16" height="17" viewBox="0 0 16 17" fill="none" xmlns="http://www.w3.org/2000/svg">
<path d="M10.3333 0.5V4.05556C10.3333 4.52705 10.4972 4.97924 10.7889 5.31263C11.0807 5.64603 11.4763 5.83333 11.8889 5.83333H15M11.1111 0.5H2.55556C2.143 0.5 1.74733 0.687301 1.45561 1.0207C1.16389 1.3541 1 1.80628 1 2.27778V14.7222C1 15.1937 1.16389 15.6459 1.45561 15.9793C1.74733 16.3127 2.143 16.5 2.55556 16.5H13.4444C13.857 16.5 14.2527 16.3127 14.5444 15.9793C14.8361 15.6459 15 15.1937 15 14.7222V4.94444L11.1111 0.5Z" stroke="black" stroke-linecap="round" stroke-linejoin="round"/>
</svg>
