<svg width="34" height="34" viewBox="0 0 34 34" fill="none" xmlns="http://www.w3.org/2000/svg">
<rect width="34.001" height="33.9988" rx="16.9994" fill="#DDDDDD"/>
<path d="M7.06251 17.3474C6.97916 17.1229 6.97916 16.8759 7.06251 16.6514C7.87421 14.6832 9.25202 13.0004 11.0213 11.8163C12.7905 10.6321 14.8715 10 17.0005 10C19.1295 10 21.2105 10.6321 22.9797 11.8163C24.749 13.0004 26.1268 14.6832 26.9385 16.6514C27.0218 16.8759 27.0218 17.1229 26.9385 17.3474C26.1268 19.3155 24.749 20.9983 22.9797 22.1825C21.2105 23.3666 19.1295 23.9988 17.0005 23.9988C14.8715 23.9988 12.7905 23.3666 11.0213 22.1825C9.25202 20.9983 7.87421 19.3155 7.06251 17.3474Z" stroke="black" stroke-opacity="0.7" stroke-width="2" stroke-linecap="round" stroke-linejoin="round"/>
<path d="M17.0005 19.9994C18.6574 19.9994 20.0005 18.6562 20.0005 16.9994C20.0005 15.3425 18.6574 13.9994 17.0005 13.9994C15.3437 13.9994 14.0005 15.3425 14.0005 16.9994C14.0005 18.6562 15.3437 19.9994 17.0005 19.9994Z" stroke="black" stroke-opacity="0.7" stroke-width="2" stroke-linecap="round" stroke-linejoin="round"/>
</svg>
