<svg width="22" height="18" viewBox="0 0 22 18" fill="none" xmlns="http://www.w3.org/2000/svg">
<path d="M1 7.5H21M19 17.5C19.5304 17.5 20.0391 17.2893 20.4142 16.9142C20.7893 16.5391 21 16.0304 21 15.5V5.5C21 4.96957 20.7893 4.46086 20.4142 4.08579C20.0391 3.71071 19.5304 3.5 19 3.5H11.1C10.7655 3.50328 10.4355 3.42261 10.1403 3.26538C9.84505 3.10815 9.59396 2.87938 9.41 2.6L8.6 1.4C8.41789 1.12347 8.16997 0.896479 7.8785 0.739396C7.58702 0.582314 7.26111 0.500055 6.93 0.5H3C2.46957 0.5 1.96086 0.710714 1.58579 1.08579C1.21071 1.46086 1 1.96957 1 2.5V15.5C1 16.0304 1.21071 16.5391 1.58579 16.9142C1.96086 17.2893 2.46957 17.5 3 17.5H19Z" stroke="white" stroke-opacity="0.7" stroke-linecap="round" stroke-linejoin="round"/>
</svg>
