<svg width="40" height="40" viewBox="0 0 40 40" fill="none" xmlns="http://www.w3.org/2000/svg">
<rect x="1" y="1" width="38" height="38" rx="3" fill="#EEEEEE"/>
<rect x="1" y="1" width="38" height="38" rx="3" stroke="#DDDDDD" stroke-width="2"/>
<path d="M20 8C26.6196 8 32 13.3804 32 20C32 26.6196 26.6196 32 20 32C13.3804 32 8 26.6196 8 20C8 13.3804 13.3804 8 20 8ZM11.8992 20.5441C11.4458 20.6952 11.2343 22.9622 12.262 23.2947C12.8363 23.4761 12.4131 24.9572 13.6826 23.7179C14.3174 23.0831 12.0806 22.3577 13.0479 20.8766C13.1688 20.6952 12.8967 20.3023 11.8992 20.5441ZM16.4635 29.8237C15.2846 28.0705 14.8615 25.2897 17.8539 24.806C19.7582 24.5038 20.1511 28.6751 24.7758 26.7708C26.1662 26.1965 27.3149 26.529 27.6171 27.1335C29.068 25.5617 30.0655 23.5668 30.3375 21.33C26.8615 19.8791 28.3728 22.7506 26.6499 22.1461C25.7431 21.8438 26.4081 13.864 21.5416 18.2166C19.7582 19.8186 12.9874 22.8413 16.5542 16.7355C18.2469 13.8035 12.5642 13.0781 13.8338 11.597C11.2645 13.5013 9.57179 16.5542 9.57179 20C9.57179 24.534 12.4433 28.3728 16.4635 29.8237Z" fill="black"/>
</svg>
