<svg width="18" height="20" viewBox="0 0 18 20" fill="none" xmlns="http://www.w3.org/2000/svg">
<path d="M13.4444 19V12C13.4444 11.7348 13.3508 11.4804 13.1841 11.2929C13.0174 11.1054 12.7913 11 12.5556 11H5.44444C5.2087 11 4.9826 11.1054 4.81591 11.2929C4.64921 11.4804 4.55556 11.7348 4.55556 12V19M4.55556 1V5C4.55556 5.26522 4.64921 5.51957 4.81591 5.70711C4.9826 5.89464 5.2087 6 5.44444 6H11.6667M11.8444 1C12.3134 1.00751 12.7607 1.22317 13.0889 1.6L16.4667 5.4C16.8016 5.76926 16.9933 6.27246 17 6.8V17C17 17.5304 16.8127 18.0391 16.4793 18.4142C16.1459 18.7893 15.6937 19 15.2222 19H2.77778C2.30628 19 1.8541 18.7893 1.5207 18.4142C1.1873 18.0391 1 17.5304 1 17V3C1 2.46957 1.1873 1.96086 1.5207 1.58579C1.8541 1.21071 2.30628 1 2.77778 1H11.8444Z" stroke="black" stroke-width="1.5" stroke-linecap="round" stroke-linejoin="round"/>
</svg>
