<svg width="20" height="20" viewBox="0 0 20 20" fill="none" xmlns="http://www.w3.org/2000/svg">
<path d="M14.6767 12.9301C15.887 11.2785 16.4292 9.23074 16.1945 7.19656C15.9599 5.16239 14.9659 3.2918 13.4114 1.95904C11.8568 0.626277 9.85635 -0.0703699 7.81021 0.00847151C5.76407 0.087313 3.82315 0.935828 2.37575 2.38426C0.928359 3.83269 0.0812323 5.77422 0.00385504 7.82042C-0.0735222 9.86661 0.624556 11.8666 1.95843 13.4202C3.2923 14.9738 5.1636 15.9665 7.19794 16.1996C9.23229 16.4328 11.2796 15.8892 12.9304 14.6776H12.9292C12.9658 14.7276 13.0067 14.7755 13.0517 14.8214L17.8642 19.6339C18.0986 19.8684 18.4165 20.0003 18.7481 20.0004C19.0797 20.0005 19.3977 19.8689 19.6323 19.6345C19.8668 19.4001 19.9987 19.0822 19.9988 18.7506C19.9989 18.419 19.8673 18.1009 19.6329 17.8664L14.8204 13.0539C14.7758 13.0086 14.7277 12.9681 14.6767 12.9301ZM14.9992 8.12513C14.9992 9.02796 14.8213 9.92196 14.4758 10.7561C14.1303 11.5902 13.6239 12.3481 12.9855 12.9865C12.3471 13.6249 11.5892 14.1313 10.7551 14.4768C9.921 14.8223 9.02701 15.0001 8.12417 15.0001C7.22133 15.0001 6.32733 14.8223 5.49322 14.4768C4.65911 14.1313 3.90121 13.6249 3.26281 12.9865C2.62441 12.3481 2.118 11.5902 1.7725 10.7561C1.427 9.92196 1.24917 9.02796 1.24917 8.12513C1.24917 6.30176 1.9735 4.55308 3.26281 3.26377C4.55212 1.97445 6.30081 1.25013 8.12417 1.25013C9.94753 1.25013 11.6962 1.97445 12.9855 3.26377C14.2748 4.55308 14.9992 6.30176 14.9992 8.12513Z" fill="black" fill-opacity="0.4"/>
</svg>
