<svg width="22" height="22" viewBox="0 0 22 22" fill="none" xmlns="http://www.w3.org/2000/svg">
<path d="M0.5 4C0.5 2.067 2.067 0.5 4 0.5H18C19.933 0.5 21.5 2.067 21.5 4V18C21.5 19.933 19.933 21.5 18 21.5H4C2.067 21.5 0.5 19.933 0.5 18V4Z" fill="#EEEEEE"/>
<path d="M0.5 4C0.5 2.067 2.067 0.5 4 0.5H18C19.933 0.5 21.5 2.067 21.5 4V18C21.5 19.933 19.933 21.5 18 21.5H4C2.067 21.5 0.5 19.933 0.5 18V4Z" stroke="#DDDDDD"/>
<path d="M4 8.66667H18M8.66667 18V8.66667M5.55556 4H16.4444C17.3036 4 18 4.69645 18 5.55556V16.4444C18 17.3036 17.3036 18 16.4444 18H5.55556C4.69645 18 4 17.3036 4 16.4444V5.55556C4 4.69645 4.69645 4 5.55556 4Z" stroke="black" stroke-opacity="0.7" stroke-width="1.5" stroke-linecap="round" stroke-linejoin="round"/>
</svg>
