<svg width="74" height="75" viewBox="0 0 74 75" fill="none" xmlns="http://www.w3.org/2000/svg">
<path d="M65 1.55664H9C4.58172 1.55664 1 5.13836 1 9.55664V65.5566C1 69.9749 4.58172 73.5566 9 73.5566H65C69.4183 73.5566 73 69.9749 73 65.5566V9.55664C73 5.13836 69.4183 1.55664 65 1.55664Z" fill="#DDDDDD"/>
<path d="M25 33.5566C29.4183 33.5566 33 29.9749 33 25.5566C33 21.1384 29.4183 17.5566 25 17.5566C20.5817 17.5566 17 21.1384 17 25.5566C17 29.9749 20.5817 33.5566 25 33.5566Z" fill="#DDDDDD"/>
<path d="M73 49.5566L60.656 37.2126C59.1558 35.7129 57.1213 34.8703 55 34.8703C52.8787 34.8703 50.8442 35.7129 49.344 37.2126L13 73.5566" fill="#DDDDDD"/>
<path d="M73 49.5566L60.656 37.2126C59.1558 35.7129 57.1213 34.8703 55 34.8703C52.8787 34.8703 50.8442 35.7129 49.344 37.2126L13 73.5566M9 1.55664H65C69.4183 1.55664 73 5.13836 73 9.55664V65.5566C73 69.9749 69.4183 73.5566 65 73.5566H9C4.58172 73.5566 1 69.9749 1 65.5566V9.55664C1 5.13836 4.58172 1.55664 9 1.55664ZM33 25.5566C33 29.9749 29.4183 33.5566 25 33.5566C20.5817 33.5566 17 29.9749 17 25.5566C17 21.1384 20.5817 17.5566 25 17.5566C29.4183 17.5566 33 21.1384 33 25.5566Z" stroke="black" stroke-opacity="0.4" stroke-width="2" stroke-linecap="round" stroke-linejoin="round"/>
</svg>
