<svg width="34" height="34" viewBox="0 0 34 34" fill="none" xmlns="http://www.w3.org/2000/svg">
<rect width="34" height="34" rx="17" fill="#DDDDDD"/>
<path d="M23 25C23 23.4087 22.3679 21.8826 21.2426 20.7574C20.1174 19.6321 18.5913 19 17 19M17 19C15.4087 19 13.8826 19.6321 12.7574 20.7574C11.6321 21.8826 11 23.4087 11 25M17 19C19.2091 19 21 17.2091 21 15C21 12.7909 19.2091 11 17 11C14.7909 11 13 12.7909 13 15C13 17.2091 14.7909 19 17 19ZM27 17C27 22.5228 22.5228 27 17 27C11.4772 27 7 22.5228 7 17C7 11.4772 11.4772 7 17 7C22.5228 7 27 11.4772 27 17Z" stroke="black" stroke-width="2" stroke-linecap="round" stroke-linejoin="round"/>
</svg>
